<svg xmlns="http://www.w3.org/2000/svg" viewBox="0 0 64 64" width="64" height="64">
  <!-- Background circle with gradient -->
  <defs>
    <linearGradient id="bg" x1="0%" y1="0%" x2="100%" y2="100%">
      <stop offset="0%" style="stop-color:#6366f1;stop-opacity:1" />
      <stop offset="100%" style="stop-color:#8b5cf6;stop-opacity:1" />
    </linearGradient>
    <linearGradient id="text" x1="0%" y1="0%" x2="100%" y2="100%">
      <stop offset="0%" style="stop-color:#ffffff;stop-opacity:1" />
      <stop offset="100%" style="stop-color:#f1f5f9;stop-opacity:1" />
    </linearGradient>
  </defs>
  
  <!-- Main circle -->
  <circle cx="32" cy="32" r="30" fill="url(#bg)" stroke="#4f46e5" stroke-width="2"/>
  
  <!-- Blog icon - stylized "B" with decorative elements -->
  <g transform="translate(32, 32)">
    <!-- Letter B -->
    <path d="M-12,-16 L-12,16 L-2,16 Q6,16 10,12 Q14,8 14,4 Q14,0 10,-4 Q6,-8 2,-8 L6,-8 Q10,-8 14,-12 Q18,-16 14,-20 Q10,-24 2,-24 L-12,-24 Z" fill="url(#text)" opacity="0.9"/>
    <path d="M-8,-20 L-2,-20 Q2,-20 4,-18 Q6,-16 6,-14 Q6,-12 4,-10 Q2,-8 -2,-8 L-8,-8 Z" fill="url(#bg)"/>
    <path d="M-8,-4 L2,-4 Q6,-4 8,-2 Q10,0 10,4 Q10,8 8,10 Q6,12 2,12 L-8,12 Z" fill="url(#bg)"/>
    
    <!-- Decorative dots -->
    <circle cx="12" cy="-12" r="2" fill="url(#text)" opacity="0.7"/>
    <circle cx="15" cy="0" r="1.5" fill="url(#text)" opacity="0.7"/>
    <circle cx="12" cy="12" r="2" fill="url(#text)" opacity="0.7"/>
  </g>
</svg>
